<svg width="38" height="56" viewBox="0 0 38 56" fill="none" xmlns="http://www.w3.org/2000/svg">
<path d="M0.850586 42.0684H18.2909H35.7312" stroke="#7EB693" stroke-width="2" stroke-miterlimit="10"/>
<path d="M4.79102 48.5L18.291 48.5L31.791 48.5" stroke="#7EB693" stroke-width="2" stroke-miterlimit="10"/>
<path d="M17.791 1.50002L17.791 8.50002L17.791 15.5" stroke="#7EB693" stroke-width="2" stroke-miterlimit="10"/>
<path d="M17.8652 14.7842V41.2158" stroke="#7EB693" stroke-width="2" stroke-miterlimit="10"/>
<path d="M28.9249 4.55275L17.8652 15.637" stroke="#7EB693" stroke-width="2" stroke-miterlimit="10"/>
<path d="M33.1787 8.81593L17.8652 24.1633" stroke="#7EB693" stroke-width="2" stroke-miterlimit="10"/>
<path d="M35.7309 15.6367L17.8652 32.6894" stroke="#7EB693" stroke-width="2" stroke-miterlimit="10"/>
<path d="M36.5817 23.3106L17.8652 42.0685" stroke="#7EB693" stroke-width="2" stroke-miterlimit="10"/>
<path d="M36.582 31.8369L26.373 42.0685" stroke="#7EB693" stroke-width="2" stroke-miterlimit="10"/>
<path d="M0 31.8369L10.209 42.0685" stroke="#7EB693" stroke-width="2" stroke-miterlimit="10"/>
<path d="M7.65625 4.55275L17.8652 15.637" stroke="#7EB693" stroke-width="2" stroke-miterlimit="10"/>
<path d="M3.40332 8.81593L17.866 24.1633" stroke="#7EB693" stroke-width="2" stroke-miterlimit="10"/>
<path d="M0.850586 14.7842L17.8655 32.6895" stroke="#7EB693" stroke-width="2" stroke-miterlimit="10"/>
<path d="M0 22.458L17.8657 41.2159" stroke="#7EB693" stroke-width="2" stroke-miterlimit="10"/>
<path d="M18.291 54.8579C8.19019 54.8579 0 46.4056 0 35.9772V20.0228C0 9.5963 8.19019 1.14211 18.291 1.14211C28.3937 1.14211 36.5821 9.5963 36.5821 20.0228V35.9772C36.5839 46.4056 28.3937 54.8579 18.291 54.8579Z" stroke="#7EB693" stroke-width="2" stroke-miterlimit="10"/>
</svg>
